<svg xmlns="http://www.w3.org/2000/svg" viewBox="0 0 703.13 321.69"><title>header</title><path d="M76.14,171.9l-.9,2.31a11.38,11.38,0,0,0-1,3.44A2.52,2.52,0,0,0,75.41,180a7.66,7.66,0,0,0,3.72.67v3.82H63.71v-3.82q4.41,0,7.4-7.5L85.46,137h4l14.63,36.14c1.45,3.58,2.75,5.73,3.93,6.46a6.44,6.44,0,0,0,3.37,1.08v3.82H88.25v-3.82c2.09,0,3.39-.2,3.89-.6a1.86,1.86,0,0,0,.76-1.53,5.58,5.58,0,0,0-.62-2.17l-.45-1.07-1.34-3.41Zm1.48-4H88.94L83.12,154Z" transform="translate(-63.71 -41.14)" style="fill:#fff"/><path d="M124.09,185l-9.85-19.51a21.4,21.4,0,0,0-2.82-4.65,3.6,3.6,0,0,0-2.58-.86v-3.65h18.41V160c-2.13,0-3.2.46-3.2,1.37a7.73,7.73,0,0,0,.86,2l6,12.08,6.23-12.56a4,4,0,0,0,.48-1.45c0-1-1-1.44-2.89-1.44v-3.65h10.8V160a3.44,3.44,0,0,0-2.54.93,28.82,28.82,0,0,0-3.27,5.57L130.39,185Z" transform="translate(-63.71 -41.14)" style="fill:#fff"/><path d="M162.84,155.17v21.1a5.75,5.75,0,0,0,.83,3.6c.55.66,1.84,1,3.86,1v3.65H146.46v-3.65h.79c1.95,0,3.19-.34,3.7-1a6.07,6.07,0,0,0,.78-3.55V166a6,6,0,0,0-.8-3.57c-.52-.67-1.75-1-3.68-1h-.79v-3.65Zm-11.6-11.94a6,6,0,0,1,1.83-4.39,6.13,6.13,0,0,1,8.74,0,6.3,6.3,0,0,1,0,8.82,5.91,5.91,0,0,1-4.35,1.82,5.83,5.83,0,0,1-4.42-1.88A6.15,6.15,0,0,1,151.24,143.23Z" transform="translate(-63.71 -41.14)" style="fill:#fff"/><path d="M182.88,185,173,165.47a21,21,0,0,0-2.82-4.65,3.6,3.6,0,0,0-2.58-.86v-3.65H186V160c-2.13,0-3.2.46-3.2,1.37a7.73,7.73,0,0,0,.86,2l6,12.08L196,162.85a4,4,0,0,0,.48-1.45c0-1-1-1.44-2.89-1.44v-3.65h10.81V160a3.45,3.45,0,0,0-2.55.93,28.82,28.82,0,0,0-3.27,5.57L189.18,185Z" transform="translate(-63.71 -41.14)" style="fill:#fff"/><path d="M226.32,181.51a19.66,19.66,0,0,1-5.25,2.73,18,18,0,0,1-5.73.92q-4,0-5.94-1.79a5.77,5.77,0,0,1-2-4.45q0-3.75,4-6.64t14.32-6.4v-2.55c0-1.81-.44-3-1.31-3.49a5.92,5.92,0,0,0-3.1-.78q-4.33,0-4.82,3.17a5.37,5.37,0,0,1-1.37,3.15,4.54,4.54,0,0,1-3.2,1,4.46,4.46,0,0,1-3.12-1.05,3.22,3.22,0,0,1-1.15-2.46c0-2.13,1.41-3.95,4.23-5.44s6.6-2.24,11.33-2.24a37.24,37.24,0,0,1,6.62.49,9.35,9.35,0,0,1,4.3,1.79,6.5,6.5,0,0,1,2.17,2.75,11.5,11.5,0,0,1,.54,3.92V177.2c0,2,.59,3,1.79,3,1,0,1.68-.64,2-1.92h2.86a6.12,6.12,0,0,1-2.6,5.23,10.48,10.48,0,0,1-6,1.69Q228.52,185.16,226.32,181.51Zm-.62-3.72v-8.06c-3.19,1.34-5.27,2.54-6.25,3.62a5,5,0,0,0-1.46,3.34,3.55,3.55,0,0,0,.86,2.35,2.76,2.76,0,0,0,2.27,1.05,5.13,5.13,0,0,0,2.38-.58A8.26,8.26,0,0,0,225.7,177.79Z" transform="translate(-63.71 -41.14)" style="fill:#fff"/><path d="M281.53,162.23V175c0,2.13.37,3.62,1.1,4.45s2.26,1.26,4.58,1.26h1v3.82H263.05v-3.82h.68q3.48,0,4.53-1.29c.7-.86,1.05-2.34,1.05-4.42V147.29c0-2.13-.36-3.62-1.08-4.46s-2.22-1.25-4.5-1.25h-.82v-3.75h39.14l.31,12.35h-3.89a17,17,0,0,0-2.21-5.13,6.59,6.59,0,0,0-2.79-2.54,12.39,12.39,0,0,0-4.4-.59h-7.54V158h3.68c1.75,0,3-.37,3.64-1.12s1.09-2.28,1.25-4.59H294v16H290.1q-.17-3.75-1.2-4.94c-.69-.79-1.94-1.19-3.76-1.19Z" transform="translate(-63.71 -41.14)" style="fill:#fff"/><path d="M316.26,162.26a15.66,15.66,0,0,1,4.55-5.31,9.52,9.52,0,0,1,5.61-1.78,5.42,5.42,0,0,1,4.44,1.85,6.15,6.15,0,0,1,1.51,4,5.25,5.25,0,0,1-1.2,3.47,4.15,4.15,0,0,1-3.38,1.45,3.69,3.69,0,0,1-1.92-.45,9.63,9.63,0,0,1-2-1.86,3.6,3.6,0,0,0-2.69-1.38c-1.49,0-2.61.92-3.35,2.74a22.78,22.78,0,0,0-1.12,8.21v3.06a6,6,0,0,0,.79,3.57c.53.67,1.75,1,3.65,1h.69v3.65h-20.9v-3.65c2,0,3.26-.33,3.79-1a5.92,5.92,0,0,0,.79-3.58v-9.84a5.88,5.88,0,0,0-.81-3.6c-.54-.65-1.82-1-3.83-1V158.2l14.28-3A24.54,24.54,0,0,1,316.26,162.26Z" transform="translate(-63.71 -41.14)" style="fill:#fff"/><path d="M355.26,181.51a19.36,19.36,0,0,1-5.25,2.73,17.91,17.91,0,0,1-5.73.92q-4,0-5.94-1.79a5.77,5.77,0,0,1-2-4.45q0-3.75,4-6.64t14.32-6.4v-2.55c0-1.81-.43-3-1.31-3.49a5.91,5.91,0,0,0-3.09-.78c-2.9,0-4.5,1.06-4.82,3.17a5.38,5.38,0,0,1-1.38,3.15,4.54,4.54,0,0,1-3.2,1,4.46,4.46,0,0,1-3.12-1.05,3.26,3.26,0,0,1-1.15-2.46c0-2.13,1.41-3.95,4.23-5.44s6.6-2.24,11.33-2.24a37.28,37.28,0,0,1,6.63.49,9.4,9.4,0,0,1,4.3,1.79,6.58,6.58,0,0,1,2.17,2.75,11.78,11.78,0,0,1,.53,3.92V177.2c0,2,.6,3,1.79,3,1,0,1.69-.64,2-1.92h2.86a6.12,6.12,0,0,1-2.6,5.23,10.43,10.43,0,0,1-6,1.69Q357.47,185.16,355.26,181.51Zm-.62-3.72v-8.06c-3.19,1.34-5.27,2.54-6.25,3.62a5,5,0,0,0-1.46,3.34,3.61,3.61,0,0,0,.86,2.35,2.77,2.77,0,0,0,2.27,1.05,5.13,5.13,0,0,0,2.38-.58A8.11,8.11,0,0,0,354.64,177.79Z" transform="translate(-63.71 -41.14)" style="fill:#fff"/><path d="M390,165.16v11.18a6.24,6.24,0,0,0,.72,3.45,3,3,0,0,0,2.58,1.06v3.65H374.06v-3.65c2,0,3.27-.31,3.82-.94a5.64,5.64,0,0,0,.82-3.57v-9.63a5.84,5.84,0,0,0-.81-3.6c-.54-.66-1.81-1-3.83-1v-3.65L389.34,156a12.06,12.06,0,0,1,.69,4.13,15.89,15.89,0,0,1,4.77-3.7,11.57,11.57,0,0,1,5.18-1.23,10.42,10.42,0,0,1,7.57,2.67,9.74,9.74,0,0,1,2.75,7.32v11.18a5.48,5.48,0,0,0,.85,3.55q.84,1,3.66,1v3.65H395.64v-3.65a4.22,4.22,0,0,0,2.43-.82c.65-.51,1-1.74,1-3.69V166a6.78,6.78,0,0,0-.78-3.86,2.59,2.59,0,0,0-2.22-1,5.35,5.35,0,0,0-3,1A12.78,12.78,0,0,0,390,165.16Z" transform="translate(-63.71 -41.14)" style="fill:#fff"/><path d="M432.19,173.28v3a6.18,6.18,0,0,0,.73,3.46c.48.68,1.49,1.05,3,1.12v3.65H416.33v-3.65q3,0,3.87-.93c.58-.62.88-1.83.88-3.65v-28.6a5.79,5.79,0,0,0-.83-3.6c-.55-.65-1.86-1-3.92-1v-3.65L432.19,137v31.74l7.34-5.27c1.4-1,2.1-1.83,2.1-2.38a1,1,0,0,0-.4-.8,5.08,5.08,0,0,0-2.46-.33v-3.65h15.7V160q-3.83,0-8.61,3.44l-2.68,1.89,7.16,9.61a35.38,35.38,0,0,0,3.94,4.71,4,4,0,0,0,2.66,1.24v3.65H438.77v-3.65c1.47,0,2.2-.42,2.2-1.27a5.25,5.25,0,0,0-1.17-2.1l-4.68-6.3Z" transform="translate(-63.71 -41.14)" style="fill:#fff"/><path d="M335,224.81a3.56,3.56,0,0,1-.72,2.31,4.6,4.6,0,0,1-1.82,1.37,8.81,8.81,0,0,1-2.16.61,14.39,14.39,0,0,1-2,.15h-8.43v-1.14a4.41,4.41,0,0,0,1.59-.22,1.13,1.13,0,0,0,.67-.63,3.15,3.15,0,0,0,.16-1.13V215.52a2.07,2.07,0,0,0-.46-1.55,3,3,0,0,0-2-.43v-1.17l3.42-.07,2.67-.06,1.47,0h.46a14.36,14.36,0,0,1,2.7.27,5.71,5.71,0,0,1,2.56,1.21,3.3,3.3,0,0,1,1.16,2.71,3.12,3.12,0,0,1-.94,2.28,7.15,7.15,0,0,1-3.09,1.58,7.82,7.82,0,0,1,2.55.87,4.39,4.39,0,0,1,1.64,1.55A4.12,4.12,0,0,1,335,224.81Zm-4.26-8.3a2.62,2.62,0,0,0-1.65-2.53,4.71,4.71,0,0,0-2-.37h-1.3v6h1a4.38,4.38,0,0,0,2.95-.84A2.88,2.88,0,0,0,330.72,216.51Zm.45,8.09a3.76,3.76,0,0,0-.88-2.66,3.26,3.26,0,0,0-2.5-.94h-2v4.37a7.45,7.45,0,0,0,.11,1.43,1.22,1.22,0,0,0,.56.8,2.83,2.83,0,0,0,1.41.27,3.66,3.66,0,0,0,2.3-.78A2.93,2.93,0,0,0,331.17,224.6Z" transform="translate(-63.71 -41.14)" style="fill:#fff"/><path d="M358,229.25h-7.92v-1.14a5.57,5.57,0,0,0,1.46-.14.63.63,0,0,0,.46-.68,2,2,0,0,0-.15-.75l-.79-2h-5.45l-.41,1.09a4.53,4.53,0,0,0-.35,1.33.87.87,0,0,0,.58.94,4.15,4.15,0,0,0,1.34.2v1.14H341v-1.14a2.48,2.48,0,0,0,1.18-.26,2.55,2.55,0,0,0,.92-1,12.32,12.32,0,0,0,.95-2.05l4.85-12.69h1.17l5.12,13.09c.38.93.65,1.55.82,1.88a1.8,1.8,0,0,0,.72.75,2.58,2.58,0,0,0,1.29.27Zm-7.39-5.91-2.31-5.86-2.21,5.86Z" transform="translate(-63.71 -41.14)" style="fill:#fff"/><path d="M387.61,226.73a5,5,0,0,1-4.82,2.93,7,7,0,0,1-2.93-.63,5.42,5.42,0,0,1-2.22-1.84,4.78,4.78,0,0,1-.84-2.81,5.22,5.22,0,0,1,.45-2.13,5.81,5.81,0,0,1,1.31-1.84,6.13,6.13,0,0,1,2-1.27,6.91,6.91,0,0,1,2.51-.45,6.45,6.45,0,0,1,3,.68,2.05,2.05,0,0,1,1.3,1.86,1.22,1.22,0,0,1-.41.93,1.33,1.33,0,0,1-.94.39,1.14,1.14,0,0,1-.78-.24,1.26,1.26,0,0,1-.36-.48c-.06-.17-.14-.46-.25-.88a1.42,1.42,0,0,0-.53-.86,1.84,1.84,0,0,0-1-.26,2.83,2.83,0,0,0-2,.84,4.32,4.32,0,0,0-.87,3.13,7,7,0,0,0,.35,2.25,3.44,3.44,0,0,0,1.12,1.63,2.92,2.92,0,0,0,1.86.6,2.67,2.67,0,0,0,1.88-.6,6.77,6.77,0,0,0,1.14-1.43Z" transform="translate(-63.71 -41.14)" style="fill:#fff"/><path d="M407.59,226.63a3.22,3.22,0,0,1-.38,1.61,2.39,2.39,0,0,1-1,1,3.31,3.31,0,0,1-1.47.31,3,3,0,0,1-1.73-.48,1.9,1.9,0,0,1-.83-1.18,6.63,6.63,0,0,1-4.17,1.66,3.48,3.48,0,0,1-2.19-.65,2,2,0,0,1-.85-1.71,2.82,2.82,0,0,1,.46-1.59,4.11,4.11,0,0,1,1.34-1.27,9.63,9.63,0,0,1,2.11-1c.82-.29,1.84-.58,3.06-.9v-.71a2.16,2.16,0,0,0-.41-1.38,2.59,2.59,0,0,0-2.91-.1,2.11,2.11,0,0,0-.56,1.2,2.15,2.15,0,0,1-.36.94,1.34,1.34,0,0,1-1.11.36,1.49,1.49,0,0,1-.92-.3,1,1,0,0,1-.39-.88,2.42,2.42,0,0,1,1.25-2,6.86,6.86,0,0,1,3.84-.86c1.82,0,3.07.31,3.75.92a3.13,3.13,0,0,1,1,2.45V226a9.73,9.73,0,0,0,0,1.09.89.89,0,0,0,.2.53.74.74,0,0,0,1.09-.16,1.34,1.34,0,0,0,.24-.81Zm-5.69.1v-3.07a7.34,7.34,0,0,0-3,1.46,2.14,2.14,0,0,0-.64,1.39,1.25,1.25,0,0,0,.35.92,1.33,1.33,0,0,0,1,.34,2.47,2.47,0,0,0,1.2-.28A7.07,7.07,0,0,0,401.9,226.73Z" transform="translate(-63.71 -41.14)" style="fill:#fff"/><path d="M427.82,229.25H421.4v-1.14a2.1,2.1,0,0,0,1.05-.19.83.83,0,0,0,.39-.57,6.71,6.71,0,0,0,.08-1.22v-3.51a3.85,3.85,0,0,0-.31-1.67,1.28,1.28,0,0,0-1.27-.61,2.14,2.14,0,0,0-1.94,1,4.21,4.21,0,0,0-.64,2.3v2.77a2.27,2.27,0,0,0,.29,1.34,1.55,1.55,0,0,0,1.23.36v1.14h-6.55v-1.14a3.79,3.79,0,0,0,1.19-.14.81.81,0,0,0,.51-.51,4,4,0,0,0,.13-1.16v-4a1.46,1.46,0,0,0-.34-1.14,2.78,2.78,0,0,0-1.49-.26v-1.14l4.82-1.07a8.21,8.21,0,0,1,.12,1.34c0,.11,0,.2,0,.28s0,.17,0,.27a8.06,8.06,0,0,1,1.63-1.36,3.89,3.89,0,0,1,2.1-.53,4.57,4.57,0,0,1,1.92.39,2.94,2.94,0,0,1,1.33,1.16,3.53,3.53,0,0,1,.48,1.88v4.18a2.67,2.67,0,0,0,.28,1.43c.19.25.67.38,1.43.38Z" transform="translate(-63.71 -41.14)" style="fill:#fff"/><path d="M448.89,229.1a30.73,30.73,0,0,0-4.8.56,3.73,3.73,0,0,1-.22-1.3,5.36,5.36,0,0,1-3.48,1.3,5.07,5.07,0,0,1-2.71-.76,5.62,5.62,0,0,1-2-2.06,5.85,5.85,0,0,1-.41-4.74,5.07,5.07,0,0,1,1-1.73,4.93,4.93,0,0,1,1.7-1.23,5.68,5.68,0,0,1,2.32-.45,5,5,0,0,1,1.64.24,3.82,3.82,0,0,1,1.09.54,7.47,7.47,0,0,1,.83.72v-4.06a3.66,3.66,0,0,0-.14-1.19.7.7,0,0,0-.51-.46,6,6,0,0,0-1.24-.13v-1.14l5.08-1.06V226a5.74,5.74,0,0,0,.09,1.24.68.68,0,0,0,.45.5,4.11,4.11,0,0,0,1.29.19Zm-5-2.34v-5a6.85,6.85,0,0,0-1.24-1.15,2.82,2.82,0,0,0-1.71-.52,2.1,2.1,0,0,0-1.14.33,2.62,2.62,0,0,0-.86.86,5.67,5.67,0,0,0-.54,2.88,5.19,5.19,0,0,0,.77,3.1,2.32,2.32,0,0,0,1.93,1,3,3,0,0,0,1.55-.41A4,4,0,0,0,443.87,226.76Z" transform="translate(-63.71 -41.14)" style="fill:#fff"/><path d="M462.17,229.25h-6.73v-1.14h.36a2.07,2.07,0,0,0,1-.2.83.83,0,0,0,.41-.56,5.6,5.6,0,0,0,.07-1v-3.68a4.54,4.54,0,0,0-.09-1.09.7.7,0,0,0-.49-.47,4.2,4.2,0,0,0-1.3-.16v-1.14l5.08-1.07v7.61a2.71,2.71,0,0,0,.26,1.43c.17.25.63.38,1.39.38Zm-1.4-15.4a1.75,1.75,0,0,1-.53,1.27,1.82,1.82,0,0,1-3.08-1.27,1.77,1.77,0,0,1,.53-1.28,1.82,1.82,0,0,1,2.56,0A1.76,1.76,0,0,1,460.77,213.85Z" transform="translate(-63.71 -41.14)" style="fill:#fff"/><path d="M483.38,229.1a30.73,30.73,0,0,0-4.8.56,4,4,0,0,1-.22-1.3,5.36,5.36,0,0,1-3.48,1.3,5.07,5.07,0,0,1-2.71-.76,5.52,5.52,0,0,1-2-2.06,5.6,5.6,0,0,1-.74-2.84,6,6,0,0,1,.32-1.9,5.24,5.24,0,0,1,1-1.73,4.93,4.93,0,0,1,1.7-1.23,5.68,5.68,0,0,1,2.32-.45,5,5,0,0,1,1.64.24,3.69,3.69,0,0,1,1.09.54,7.47,7.47,0,0,1,.83.72v-4.06a3.66,3.66,0,0,0-.14-1.19.7.7,0,0,0-.51-.46,5.94,5.94,0,0,0-1.24-.13v-1.14l5.09-1.06V226a5.93,5.93,0,0,0,.08,1.24.68.68,0,0,0,.45.5,4.16,4.16,0,0,0,1.29.19Zm-5-2.34v-5a6.85,6.85,0,0,0-1.24-1.15,2.82,2.82,0,0,0-1.71-.52,2.1,2.1,0,0,0-1.14.33,2.62,2.62,0,0,0-.86.86,5.67,5.67,0,0,0-.54,2.88,5.19,5.19,0,0,0,.77,3.1,2.32,2.32,0,0,0,1.93,1,3,3,0,0,0,1.55-.41A4,4,0,0,0,478.36,226.76Z" transform="translate(-63.71 -41.14)" style="fill:#fff"/><path d="M503.08,226.63a3.12,3.12,0,0,1-.39,1.61,2.37,2.37,0,0,1-1,1,3.37,3.37,0,0,1-1.47.31,3,3,0,0,1-1.74-.48,1.94,1.94,0,0,1-.83-1.18,6.61,6.61,0,0,1-4.16,1.66,3.48,3.48,0,0,1-2.19-.65,2,2,0,0,1-.86-1.71,2.82,2.82,0,0,1,.46-1.59,4.15,4.15,0,0,1,1.35-1.27,9.63,9.63,0,0,1,2.11-1c.82-.29,1.84-.58,3.06-.9v-.71a2.11,2.11,0,0,0-.42-1.38,1.91,1.91,0,0,0-1.53-.5,1.93,1.93,0,0,0-1.37.4,2,2,0,0,0-.56,1.2,2.29,2.29,0,0,1-.37.94,1.3,1.3,0,0,1-1.1.36,1.47,1.47,0,0,1-.92-.3,1,1,0,0,1-.4-.88,2.44,2.44,0,0,1,1.25-2,6.91,6.91,0,0,1,3.84-.86c1.82,0,3.07.31,3.75.92a3.11,3.11,0,0,1,1,2.45V226c0,.49,0,.86,0,1.09a1,1,0,0,0,.21.53.67.67,0,0,0,.52.17.69.69,0,0,0,.57-.33,1.34,1.34,0,0,0,.24-.81Zm-5.69.1v-3.07a7.27,7.27,0,0,0-3,1.46,2.1,2.1,0,0,0-.64,1.39,1.25,1.25,0,0,0,.34.92,1.34,1.34,0,0,0,1,.34,2.49,2.49,0,0,0,1.21-.28A7.57,7.57,0,0,0,497.39,226.73Z" transform="translate(-63.71 -41.14)" style="fill:#fff"/><path d="M517.72,227a4.92,4.92,0,0,1-1.56,2,3.61,3.61,0,0,1-2.1.61,3.23,3.23,0,0,1-2.15-.6,2.46,2.46,0,0,1-.86-1.33,8.24,8.24,0,0,1-.16-1.65v-5.84H509V219.1a4.42,4.42,0,0,0,2.05-.45,3.45,3.45,0,0,0,1.36-1.2,3.91,3.91,0,0,0,.64-1.62h1v3.27h3.51v1.14h-3.51v5.91a6.32,6.32,0,0,0,.14,1.56.66.66,0,0,0,.7.48,1.22,1.22,0,0,0,1-.47,6.46,6.46,0,0,0,.74-1.16Z" transform="translate(-63.71 -41.14)" style="fill:#fff"/><path d="M535.62,223.8H528c0,.15,0,.49.07,1a5.71,5.71,0,0,0,.35,1.57,2.9,2.9,0,0,0,1,1.36,3,3,0,0,0,1.91.55,4.9,4.9,0,0,0,1.59-.33,3.34,3.34,0,0,0,1.61-1.29l1,.66a5.09,5.09,0,0,1-4.65,2.34,7.86,7.86,0,0,1-2.59-.41,5.62,5.62,0,0,1-2-1.14,4.94,4.94,0,0,1-1.26-1.72,5.23,5.23,0,0,1-.43-2.13,5.47,5.47,0,0,1,.73-2.78,5.25,5.25,0,0,1,2.07-2,6.15,6.15,0,0,1,3.09-.76,5.41,5.41,0,0,1,2.87.73,4.48,4.48,0,0,1,1.72,1.9A5.56,5.56,0,0,1,535.62,223.8Zm-3.07-1.14c0-1.89-.74-2.83-2.23-2.83a2,2,0,0,0-1.66.78,3.69,3.69,0,0,0-.63,2Z" transform="translate(-63.71 -41.14)" style="fill:#fff"/><path d="M561.4,229.25h-6.73v-1.14H555a2.14,2.14,0,0,0,1.05-.2.82.82,0,0,0,.4-.56,5.43,5.43,0,0,0,.08-1v-3.68a4,4,0,0,0-.1-1.09.71.71,0,0,0-.48-.47,4.27,4.27,0,0,0-1.31-.16v-1.14l5.08-1.07v7.61a2.82,2.82,0,0,0,.26,1.43c.18.25.64.38,1.39.38Zm-1.4-15.4a1.79,1.79,0,0,1-1.8,1.79,1.75,1.75,0,0,1-1.27-.54,1.71,1.71,0,0,1-.54-1.25,1.74,1.74,0,0,1,.54-1.28,1.71,1.71,0,0,1,1.27-.53,1.78,1.78,0,0,1,1.8,1.81Z" transform="translate(-63.71 -41.14)" style="fill:#fff"/><path d="M582.24,229.25h-6.42v-1.14a2.1,2.1,0,0,0,1-.19.83.83,0,0,0,.39-.57,7,7,0,0,0,.07-1.22v-3.51A3.71,3.71,0,0,0,577,221a1.26,1.26,0,0,0-1.26-.61,2.14,2.14,0,0,0-1.94,1,4.12,4.12,0,0,0-.64,2.3v2.77a2.27,2.27,0,0,0,.29,1.34,1.54,1.54,0,0,0,1.22.36v1.14h-6.54v-1.14a3.83,3.83,0,0,0,1.19-.14.81.81,0,0,0,.51-.51,4,4,0,0,0,.12-1.16v-4a1.46,1.46,0,0,0-.33-1.14,2.78,2.78,0,0,0-1.49-.26v-1.14l4.82-1.07a8.14,8.14,0,0,1,.11,1.34v.28a2.26,2.26,0,0,0,0,.27,8,8,0,0,1,1.62-1.36,4,4,0,0,1,2.11-.53,4.57,4.57,0,0,1,1.92.39,2.94,2.94,0,0,1,1.33,1.16,3.53,3.53,0,0,1,.48,1.88v4.18a2.58,2.58,0,0,0,.28,1.43c.19.25.66.38,1.43.38Z" transform="translate(-63.71 -41.14)" style="fill:#fff"/><path d="M613.71,224.43a4.47,4.47,0,0,1-.34,1.65,5.78,5.78,0,0,1-1,1.68,5.2,5.2,0,0,1-1.7,1.3,5.44,5.44,0,0,1-2.38.5,6.68,6.68,0,0,1-2.66-.58,5.81,5.81,0,0,1-2.23-1.74,6.34,6.34,0,0,0-.51,1.7h-1.14v-5.75h1.14a11.14,11.14,0,0,0,.85,2.33,5.58,5.58,0,0,0,1.55,1.88,3.84,3.84,0,0,0,2.44.79,2.91,2.91,0,0,0,2-.7,2.26,2.26,0,0,0,.76-1.75,2.31,2.31,0,0,0-.23-1,2.59,2.59,0,0,0-.69-.8,7.83,7.83,0,0,0-1.22-.75c-.51-.27-1.1-.55-1.76-.85a14.78,14.78,0,0,1-2.51-1.45,7.25,7.25,0,0,1-1.48-1.42,4.76,4.76,0,0,1-.69-1.31,4.12,4.12,0,0,1-.19-1.25,4.57,4.57,0,0,1,.6-2.22,4.8,4.8,0,0,1,1.78-1.8,5.16,5.16,0,0,1,2.71-.7,4.86,4.86,0,0,1,2.24.53,5.75,5.75,0,0,1,1.85,1.44,7.43,7.43,0,0,0,.41-1.46h1.16v4.68h-1.16c-.83-2.55-2.26-3.83-4.31-3.83a2.63,2.63,0,0,0-1.79.59,1.93,1.93,0,0,0-.68,1.52,2,2,0,0,0,.42,1.27,3.5,3.5,0,0,0,1.11.92c.46.26,1.2.63,2.23,1.11a29.87,29.87,0,0,1,2.9,1.52,6.23,6.23,0,0,1,1.77,1.62A3.82,3.82,0,0,1,613.71,224.43Z" transform="translate(-63.71 -41.14)" style="fill:#fff"/><path d="M633.67,224.14a5.2,5.2,0,0,1-.82,2.94,5.36,5.36,0,0,1-2.21,1.92,7.06,7.06,0,0,1-3.06.66,7.22,7.22,0,0,1-3-.61,5.35,5.35,0,0,1-2.28-1.85,5.05,5.05,0,0,1-.89-3,4.8,4.8,0,0,1,1.84-4.08,7,7,0,0,1,4.36-1.4,6.6,6.6,0,0,1,3.24.75,5.1,5.1,0,0,1,2.07,2A5.55,5.55,0,0,1,633.67,224.14Zm-3.42-.07a7.08,7.08,0,0,0-.56-3.17,2.21,2.21,0,0,0-2.17-1.07,2.2,2.2,0,0,0-2.41,1.9,11.54,11.54,0,0,0-.23,2.53,7.82,7.82,0,0,0,.51,3.08,2.15,2.15,0,0,0,2.22,1.18,2.19,2.19,0,0,0,1.71-.65,3.07,3.07,0,0,0,.76-1.61A13,13,0,0,0,630.25,224.07Z" transform="translate(-63.71 -41.14)" style="fill:#fff"/><path d="M652.14,226.73a5,5,0,0,1-4.82,2.93,7,7,0,0,1-2.93-.63,5.48,5.48,0,0,1-2.22-1.84,4.78,4.78,0,0,1-.84-2.81,5.23,5.23,0,0,1,.46-2.13,5.78,5.78,0,0,1,1.3-1.84,6.13,6.13,0,0,1,2-1.27,6.94,6.94,0,0,1,2.51-.45,6.45,6.45,0,0,1,3,.68,2.05,2.05,0,0,1,1.3,1.86,1.19,1.19,0,0,1-.41.93,1.31,1.31,0,0,1-.94.39,1.14,1.14,0,0,1-.78-.24,1.26,1.26,0,0,1-.36-.48c-.06-.17-.14-.46-.25-.88a1.38,1.38,0,0,0-.53-.86,1.82,1.82,0,0,0-1-.26,2.8,2.8,0,0,0-2,.84,4.32,4.32,0,0,0-.87,3.13,6.76,6.76,0,0,0,.35,2.25,3.42,3.42,0,0,0,1.11,1.63,2.93,2.93,0,0,0,1.87.6,2.64,2.64,0,0,0,1.87-.6,6.77,6.77,0,0,0,1.14-1.43Z" transform="translate(-63.71 -41.14)" style="fill:#fff"/><path d="M665.71,229.25H659v-1.14h.36a2.12,2.12,0,0,0,1-.2.83.83,0,0,0,.41-.56,5.6,5.6,0,0,0,.07-1v-3.68a4.54,4.54,0,0,0-.09-1.09.72.72,0,0,0-.49-.47,4.2,4.2,0,0,0-1.3-.16v-1.14l5.08-1.07v7.61a2.71,2.71,0,0,0,.26,1.43c.17.25.63.38,1.39.38Zm-1.4-15.4a1.79,1.79,0,0,1-3.07,1.25,1.71,1.71,0,0,1-.54-1.25,1.77,1.77,0,0,1,.53-1.28,1.82,1.82,0,0,1,2.56,0A1.76,1.76,0,0,1,664.31,213.85Z" transform="translate(-63.71 -41.14)" style="fill:#fff"/><path d="M685.17,224.14a5.2,5.2,0,0,1-.82,2.94,5.3,5.3,0,0,1-2.21,1.92,7.05,7.05,0,0,1-3,.66,7.23,7.23,0,0,1-3-.61,5.35,5.35,0,0,1-2.28-1.85,5.05,5.05,0,0,1-.89-3,4.8,4.8,0,0,1,1.84-4.08,7,7,0,0,1,4.36-1.4,6.64,6.64,0,0,1,3.25.75,5.13,5.13,0,0,1,2.06,2A5.45,5.45,0,0,1,685.17,224.14Zm-3.42-.07a7.08,7.08,0,0,0-.56-3.17,2.21,2.21,0,0,0-2.17-1.07,2.48,2.48,0,0,0-1.6.47,2.54,2.54,0,0,0-.81,1.43,11.54,11.54,0,0,0-.23,2.53,7.82,7.82,0,0,0,.51,3.08,2.15,2.15,0,0,0,2.22,1.18,2.23,2.23,0,0,0,1.72-.65,3.13,3.13,0,0,0,.75-1.61A13,13,0,0,0,681.75,224.07Z" transform="translate(-63.71 -41.14)" style="fill:#fff"/><path d="M699.28,229.25h-7.13v-1.14h.54a2.07,2.07,0,0,0,1-.2.83.83,0,0,0,.41-.56,5.6,5.6,0,0,0,.07-1V215.74c0-.59-.14-1-.41-1.14a3.73,3.73,0,0,0-1.65-.25v-1.14l5.26-1.06V226.3a5.6,5.6,0,0,0,.07,1,.82.82,0,0,0,.39.56,2.14,2.14,0,0,0,1,.2h.36Z" transform="translate(-63.71 -41.14)" style="fill:#fff"/><path d="M718.62,224.14a5.2,5.2,0,0,1-.82,2.94,5.3,5.3,0,0,1-2.21,1.92,7.05,7.05,0,0,1-3.05.66,7.23,7.23,0,0,1-3-.61,5.35,5.35,0,0,1-2.28-1.85,5.05,5.05,0,0,1-.89-3,4.8,4.8,0,0,1,1.84-4.08,7,7,0,0,1,4.36-1.4,6.64,6.64,0,0,1,3.25.75,5.13,5.13,0,0,1,2.06,2A5.45,5.45,0,0,1,718.62,224.14Zm-3.42-.07a7.08,7.08,0,0,0-.56-3.17,2.21,2.21,0,0,0-2.17-1.07,2.48,2.48,0,0,0-1.6.47,2.54,2.54,0,0,0-.81,1.43,11.54,11.54,0,0,0-.23,2.53,7.82,7.82,0,0,0,.51,3.08,2.15,2.15,0,0,0,2.22,1.18,2.23,2.23,0,0,0,1.72-.65,3.13,3.13,0,0,0,.75-1.61A13,13,0,0,0,715.2,224.07Z" transform="translate(-63.71 -41.14)" style="fill:#fff"/><path d="M738.54,219.78a1,1,0,0,1-.24.72.71.71,0,0,1-.55.27,1.21,1.21,0,0,1-.78-.33l-.21-.16a2.48,2.48,0,0,0-.24-.18.42.42,0,0,0-.21-.06.82.82,0,0,0-.61.25,5.57,5.57,0,0,1,.66,1,2.86,2.86,0,0,1,.22,1.22,2.91,2.91,0,0,1-.45,1.67,3,3,0,0,1-1.19,1,6.52,6.52,0,0,1-1.5.52c-.51.11-1.16.21-2,.32-2,.24-2.92.64-2.92,1.19,0,.24.14.41.44.5a4.75,4.75,0,0,0,1.3.13h1.89a16,16,0,0,1,1.73.1,6.64,6.64,0,0,1,1.69.42,3.57,3.57,0,0,1,1.47,1.08,3,3,0,0,1,.61,2,3.49,3.49,0,0,1-.55,1.82,4.25,4.25,0,0,1-2,1.56,9.46,9.46,0,0,1-3.8.64,14.17,14.17,0,0,1-3.71-.5,2.16,2.16,0,0,1-1.84-2.22,1.83,1.83,0,0,1,.35-1.08,1.23,1.23,0,0,1,1.07-.49,1.69,1.69,0,0,1,.93.22,1.72,1.72,0,0,0-.27.92,1.69,1.69,0,0,0,1,1.4,5.39,5.39,0,0,0,2.85.61,7,7,0,0,0,3-.55,1.66,1.66,0,0,0,1.11-1.46,1.11,1.11,0,0,0-.47-1,3.09,3.09,0,0,0-1.37-.41c-.59-.07-1.51-.1-2.75-.12a11,11,0,0,1-3.57-.5,1.9,1.9,0,0,1-1.3-2,2,2,0,0,1,1-1.87,8,8,0,0,1,2.38-.9q-3.32-.63-3.32-3.12a3.65,3.65,0,0,1,.44-1.66,3.56,3.56,0,0,1,1.57-1.46,6.43,6.43,0,0,1,3.05-.61,5.55,5.55,0,0,1,3.75,1.14,2.36,2.36,0,0,1,2-1.11,1.42,1.42,0,0,1,1,.31A1,1,0,0,1,738.54,219.78Zm-5.08,2.59a3.51,3.51,0,0,0-.47-1.83,1.6,1.6,0,0,0-1.47-.78,1.67,1.67,0,0,0-1.54.72,3.27,3.27,0,0,0-.45,1.74,4.17,4.17,0,0,0,.42,1.87,1.59,1.59,0,0,0,1.57.85,1.71,1.71,0,0,0,1.4-.67A2.93,2.93,0,0,0,733.46,222.37Z" transform="translate(-63.71 -41.14)" style="fill:#fff"/><path d="M758,220.24a2.08,2.08,0,0,0-.83.27,1.86,1.86,0,0,0-.54.62c-.16.27-.45.83-.86,1.68l-3.63,7.53c-.81,1.66-1.36,2.77-1.66,3.32a4.54,4.54,0,0,1-1,1.3,2.07,2.07,0,0,1-1.39.49,1.52,1.52,0,0,1-1-.35,1.1,1.1,0,0,1-.42-.88,1.24,1.24,0,0,1,.51-1.1,4.87,4.87,0,0,1,1.33-.57,3,3,0,0,0,1.69-1.18,10.09,10.09,0,0,0,1-1.87l-4.72-8.32a2,2,0,0,0-.61-.77,1.44,1.44,0,0,0-.75-.17V219.1h6v1.14h-.39c-.57,0-.85.14-.85.41a2.12,2.12,0,0,0,.35.86l2.61,4.59,1.93-3.93a3.2,3.2,0,0,0,.41-1.15.64.64,0,0,0-.36-.58,1.82,1.82,0,0,0-.86-.2V219.1h4Z" transform="translate(-63.71 -41.14)" style="fill:#fff"/><path d="M766.63,229.18a4.86,4.86,0,0,1-.52,2.24,4.41,4.41,0,0,1-1.52,1.7,5.68,5.68,0,0,1-2.4.85v-1.14a4.82,4.82,0,0,0,2.23-1,2.22,2.22,0,0,0,.84-1.77.74.74,0,0,0-.11-.44.35.35,0,0,0-.32-.18,2.32,2.32,0,0,0-.41.06,1.7,1.7,0,0,1-.61.08,1.91,1.91,0,0,1-1.2-3.31,2,2,0,0,1,1.4-.53,2.25,2.25,0,0,1,1.19.38,2.92,2.92,0,0,1,1,1.16A4,4,0,0,1,766.63,229.18Z" transform="translate(-63.71 -41.14)" style="fill:#fff"/><path d="M333.34,246.07a2.83,2.83,0,0,0-.77.16.6.6,0,0,0-.35.38,2.37,2.37,0,0,0-.1.82v2.79a12.6,12.6,0,0,0-2.74.33l-1.6.33a7.75,7.75,0,0,1-1.26.09,5.86,5.86,0,0,1-3.3-.9,5.74,5.74,0,0,1-2.06-2.32,6.61,6.61,0,0,1-.69-2.91,6.16,6.16,0,0,1,.81-3.13,6,6,0,0,1,5.25-3,5.55,5.55,0,0,1,3.67,1.39,3.81,3.81,0,0,0,.32-1h.85l.09,3.88h-.81a4.32,4.32,0,0,0-.69-1.62,3.77,3.77,0,0,0-1.26-1.16,3.3,3.3,0,0,0-1.67-.43,3.87,3.87,0,0,0-1.3.23,3.15,3.15,0,0,0-1.2.81,4.16,4.16,0,0,0-.89,1.56,7.76,7.76,0,0,0-.34,2.44,10.42,10.42,0,0,0,.27,2.39,3.94,3.94,0,0,0,1.07,2,3,3,0,0,0,2.27.83,3.33,3.33,0,0,0,1.75-.37,1.74,1.74,0,0,0,.77-.88,3.61,3.61,0,0,0,.18-1.18,3.22,3.22,0,0,0-.09-.89.68.68,0,0,0-.43-.41,3,3,0,0,0-1-.13v-.8h5.29Z" transform="translate(-63.71 -41.14)" style="fill:#fff"/><path d="M345.88,246.9H340.5c0,.11,0,.35.05.71a4.18,4.18,0,0,0,.24,1.11,2,2,0,0,0,2.06,1.35,3.37,3.37,0,0,0,1.12-.24,2.4,2.4,0,0,0,1.14-.91l.68.46a3.57,3.57,0,0,1-3.28,1.66,5.57,5.57,0,0,1-1.83-.29,4.07,4.07,0,0,1-1.41-.81,3.63,3.63,0,0,1-.88-1.21,3.8,3.8,0,0,1-.3-1.51,3.86,3.86,0,0,1,.51-1.95,3.74,3.74,0,0,1,1.46-1.44,4.35,4.35,0,0,1,2.18-.53,3.82,3.82,0,0,1,2,.51,3.27,3.27,0,0,1,1.22,1.34A4,4,0,0,1,345.88,246.9Zm-2.17-.8c0-1.33-.52-2-1.57-2a1.36,1.36,0,0,0-1.17.55,2.63,2.63,0,0,0-.45,1.45Z" transform="translate(-63.71 -41.14)" style="fill:#fff"/><path d="M360.78,250.75h-4.53v-.81a1.53,1.53,0,0,0,.74-.13.59.59,0,0,0,.28-.4,5.56,5.56,0,0,0,.05-.87v-2.47a2.59,2.59,0,0,0-.22-1.18.9.9,0,0,0-.89-.43,1.5,1.5,0,0,0-1.37.7,3,3,0,0,0-.45,1.63v2a1.54,1.54,0,0,0,.2.94c.13.17.42.25.86.25v.81h-4.61v-.81a2.55,2.55,0,0,0,.84-.1.51.51,0,0,0,.35-.35,2.76,2.76,0,0,0,.09-.82v-2.83a1,1,0,0,0-.23-.8,2,2,0,0,0-1.05-.19v-.8l3.4-.75a6.39,6.39,0,0,1,.08.94,1.21,1.21,0,0,1,0,.2v.19a6.19,6.19,0,0,1,1.14-1,2.77,2.77,0,0,1,1.49-.37,3.25,3.25,0,0,1,1.35.27,2,2,0,0,1,.94.82,2.46,2.46,0,0,1,.34,1.33v2.95a1.8,1.8,0,0,0,.2,1c.13.18.47.27,1,.27Z" transform="translate(-63.71 -41.14)" style="fill:#fff"/><path d="M375.65,250.64a22.22,22.22,0,0,0-3.39.4,2.77,2.77,0,0,1-.15-.92,3.82,3.82,0,0,1-2.46.92,3.56,3.56,0,0,1-1.91-.54,3.82,3.82,0,0,1-1.4-1.45,4,4,0,0,1-.52-2,4.14,4.14,0,0,1,.22-1.34,3.71,3.71,0,0,1,.72-1.22,3.32,3.32,0,0,1,1.2-.87,4,4,0,0,1,1.64-.31,3.55,3.55,0,0,1,1.15.16,2.9,2.9,0,0,1,.77.38c.19.15.39.32.59.51v-2.86a2.66,2.66,0,0,0-.1-.84.5.5,0,0,0-.36-.33,4.7,4.7,0,0,0-.87-.09v-.8l3.58-.75v9.79a4.3,4.3,0,0,0,.06.88.51.51,0,0,0,.32.35,2.81,2.81,0,0,0,.91.14ZM372.11,249v-3.54a4.94,4.94,0,0,0-.88-.82,2,2,0,0,0-1.2-.36,1.55,1.55,0,0,0-.81.23,1.84,1.84,0,0,0-.6.61,3.91,3.91,0,0,0-.39,2,3.61,3.61,0,0,0,.55,2.19,1.64,1.64,0,0,0,1.36.74,2.2,2.2,0,0,0,1.09-.29A2.87,2.87,0,0,0,372.11,249Z" transform="translate(-63.71 -41.14)" style="fill:#fff"/><path d="M388.36,246.9H383c0,.11,0,.35,0,.71a3.82,3.82,0,0,0,.24,1.11,2.09,2.09,0,0,0,.71,1,2.13,2.13,0,0,0,1.35.39,3.37,3.37,0,0,0,1.12-.24,2.4,2.4,0,0,0,1.14-.91l.68.46A3.57,3.57,0,0,1,385,251a5.57,5.57,0,0,1-1.83-.29,4.07,4.07,0,0,1-1.41-.81,3.49,3.49,0,0,1-.88-1.21,3.64,3.64,0,0,1-.31-1.51,3.86,3.86,0,0,1,.51-1.95,3.77,3.77,0,0,1,1.47-1.44,4.35,4.35,0,0,1,2.18-.53,3.76,3.76,0,0,1,2,.51,3.2,3.2,0,0,1,1.22,1.34A3.9,3.9,0,0,1,388.36,246.9Zm-2.17-.8c0-1.33-.53-2-1.58-2a1.35,1.35,0,0,0-1.16.55,2.55,2.55,0,0,0-.46,1.45Z" transform="translate(-63.71 -41.14)" style="fill:#fff"/><path d="M400.84,244.68a1.08,1.08,0,0,1-.31.8,1.05,1.05,0,0,1-.73.29,1.08,1.08,0,0,1-.88-.49,2.31,2.31,0,0,0-.29-.31.44.44,0,0,0-.32-.1,1.16,1.16,0,0,0-1.06.74,3.22,3.22,0,0,0-.39,1.53v1.53a1.92,1.92,0,0,0,.19,1c.13.18.46.27,1,.27h.46v.81h-5.43v-.81h.45c.49,0,.79-.09.9-.28a2.05,2.05,0,0,0,.17-1v-2.56a2.13,2.13,0,0,0-.12-.84.6.6,0,0,0-.42-.33,3.84,3.84,0,0,0-1-.09v-.8l3.41-.75a10.84,10.84,0,0,1,.24,1.89,3.76,3.76,0,0,1,.65-.94,3.09,3.09,0,0,1,.89-.69,2.06,2.06,0,0,1,1-.26,1.57,1.57,0,0,1,1.14.4A1.3,1.3,0,0,1,400.84,244.68Z" transform="translate(-63.71 -41.14)" style="fill:#fff"/><path d="M422.67,247.35a3.41,3.41,0,0,1-.23,1.16,4,4,0,0,1-.72,1.18,3.47,3.47,0,0,1-1.2.92,3.71,3.71,0,0,1-1.68.36,4.73,4.73,0,0,1-1.88-.41,4.18,4.18,0,0,1-1.57-1.23,4.48,4.48,0,0,0-.36,1.2h-.81v-4.06H415a7.73,7.73,0,0,0,.6,1.65,3.94,3.94,0,0,0,1.09,1.32,2.7,2.7,0,0,0,1.73.56,2.08,2.08,0,0,0,1.43-.49,1.61,1.61,0,0,0,.54-1.24,1.54,1.54,0,0,0-.17-.73,1.83,1.83,0,0,0-.48-.57,6.34,6.34,0,0,0-.86-.53c-.37-.19-.78-.39-1.25-.6a10.67,10.67,0,0,1-1.77-1,5,5,0,0,1-1-1,3.11,3.11,0,0,1-.49-.93,2.94,2.94,0,0,1-.14-.88,3.18,3.18,0,0,1,.43-1.57,3.41,3.41,0,0,1,1.26-1.27,3.62,3.62,0,0,1,1.91-.49,3.49,3.49,0,0,1,1.58.37,4,4,0,0,1,1.3,1,4.69,4.69,0,0,0,.29-1h.83v3.3H421c-.58-1.8-1.6-2.7-3-2.7a1.9,1.9,0,0,0-1.27.41,1.47,1.47,0,0,0-.17,2,2.44,2.44,0,0,0,.78.66c.32.17.85.43,1.57.77s1.56.78,2.05,1.08a4.29,4.29,0,0,1,1.25,1.15A2.72,2.72,0,0,1,422.67,247.35Z" transform="translate(-63.71 -41.14)" style="fill:#fff"/><path d="M433.79,249.19a3.54,3.54,0,0,1-1.1,1.42,2.63,2.63,0,0,1-1.48.43,2.33,2.33,0,0,1-1.53-.42,1.81,1.81,0,0,1-.6-.94,6,6,0,0,1-.11-1.17v-4.12h-1.32v-.8a3.12,3.12,0,0,0,1.44-.32,2.51,2.51,0,0,0,1-.85,3,3,0,0,0,.45-1.15h.71v2.32h2.48v.8h-2.48v4.17a4.57,4.57,0,0,0,.1,1.1.48.48,0,0,0,.5.34.85.85,0,0,0,.69-.33,4.66,4.66,0,0,0,.53-.82Z" transform="translate(-63.71 -41.14)" style="fill:#fff"/><path d="M448.2,250.7l-.88.05-1.42.12a10.87,10.87,0,0,0-1.25.17v-1.28a3.48,3.48,0,0,1-2.7,1.3,2.54,2.54,0,0,1-1.7-.49,2,2,0,0,1-.68-1.08,5.75,5.75,0,0,1-.14-1.27v-2.58a3.49,3.49,0,0,0-.06-.76.54.54,0,0,0-.32-.36,2,2,0,0,0-.87-.13v-.8h3.51v4.81c0,1,.38,1.49,1.15,1.49a1.45,1.45,0,0,0,1.11-.47,4.66,4.66,0,0,0,.7-.89v-2.89a2.93,2.93,0,0,0-.07-.78.52.52,0,0,0-.33-.35,2.47,2.47,0,0,0-.91-.12v-.8h3.57v5.26a1.88,1.88,0,0,0,.07.61.59.59,0,0,0,.36.31,2.35,2.35,0,0,0,.86.12Z" transform="translate(-63.71 -41.14)" style="fill:#fff"/><path d="M463.1,250.64a22.23,22.23,0,0,0-3.38.4,2.72,2.72,0,0,1-.16-.92,3.82,3.82,0,0,1-2.46.92,3.58,3.58,0,0,1-1.91-.54,3.9,3.9,0,0,1-1.4-1.45,4,4,0,0,1-.52-2,4.15,4.15,0,0,1,.23-1.34,3.68,3.68,0,0,1,.71-1.22,3.41,3.41,0,0,1,1.2-.87,4.07,4.07,0,0,1,1.64-.31,3.55,3.55,0,0,1,1.15.16,2.9,2.9,0,0,1,.77.38,6.7,6.7,0,0,1,.59.51v-2.86a2.39,2.39,0,0,0-.1-.84.5.5,0,0,0-.36-.33,4.7,4.7,0,0,0-.87-.09v-.8l3.59-.75v9.79a5.52,5.52,0,0,0,.05.88.51.51,0,0,0,.32.35,2.81,2.81,0,0,0,.91.14ZM459.56,249v-3.54a4.87,4.87,0,0,0-.87-.82,2.06,2.06,0,0,0-1.21-.36,1.55,1.55,0,0,0-.81.23,1.84,1.84,0,0,0-.6.61,3.91,3.91,0,0,0-.39,2,3.68,3.68,0,0,0,.55,2.19,1.66,1.66,0,0,0,1.36.74,2.23,2.23,0,0,0,1.1-.29A2.83,2.83,0,0,0,459.56,249Z" transform="translate(-63.71 -41.14)" style="fill:#fff"/><path d="M472.48,250.75h-4.75v-.81H468a1.4,1.4,0,0,0,.74-.14.56.56,0,0,0,.28-.39,3.47,3.47,0,0,0,.06-.74v-2.6a2.8,2.8,0,0,0-.07-.77.51.51,0,0,0-.34-.33,3,3,0,0,0-.92-.12v-.8l3.58-.75v5.37a1.92,1.92,0,0,0,.19,1c.12.18.45.27,1,.27Zm-1-10.87a1.24,1.24,0,0,1-.37.89,1.29,1.29,0,0,1-2.18-.89,1.25,1.25,0,0,1,.38-.91,1.22,1.22,0,0,1,.9-.37,1.26,1.26,0,0,1,1.27,1.28Z" transform="translate(-63.71 -41.14)" style="fill:#fff"/><path d="M485.38,246.9H480c0,.11,0,.35.05.71a3.82,3.82,0,0,0,.24,1.11,2.09,2.09,0,0,0,.71,1,2.13,2.13,0,0,0,1.35.39,3.37,3.37,0,0,0,1.12-.24,2.4,2.4,0,0,0,1.14-.91l.68.46A3.57,3.57,0,0,1,482,251a5.57,5.57,0,0,1-1.83-.29,4.07,4.07,0,0,1-1.41-.81,3.49,3.49,0,0,1-.88-1.21,3.64,3.64,0,0,1-.31-1.51,3.86,3.86,0,0,1,.51-1.95,3.77,3.77,0,0,1,1.47-1.44,4.32,4.32,0,0,1,2.18-.53,3.76,3.76,0,0,1,2,.51,3.2,3.2,0,0,1,1.22,1.34A3.9,3.9,0,0,1,485.38,246.9Zm-2.17-.8c0-1.33-.53-2-1.58-2a1.35,1.35,0,0,0-1.16.55,2.55,2.55,0,0,0-.46,1.45Z" transform="translate(-63.71 -41.14)" style="fill:#fff"/><path d="M498,248.67a1.91,1.91,0,0,1-.45,1.28,2.71,2.71,0,0,1-1.23.81,5.29,5.29,0,0,1-1.81.28,7.36,7.36,0,0,1-1.39-.14,4.48,4.48,0,0,1-1.22-.4l-.35.49h-.68l-.09-2.28h.74a2.16,2.16,0,0,0,.88,1.06,3.6,3.6,0,0,0,2,.46,6,6,0,0,0,.71,0,2,2,0,0,0,.74-.27.74.74,0,0,0,.36-.68.61.61,0,0,0-.37-.57,7.88,7.88,0,0,0-1.36-.43c-.8-.21-1.46-.4-2-.58a3.61,3.61,0,0,1-1.31-.8,1.77,1.77,0,0,1-.53-1.33,1.86,1.86,0,0,1,.95-1.63,4.59,4.59,0,0,1,2.49-.6,6.39,6.39,0,0,1,1.54.15,7.13,7.13,0,0,1,1,.34l.21-.44h.7v2h-.72a1.31,1.31,0,0,0-.44-.66,2.31,2.31,0,0,0-.9-.46,4.7,4.7,0,0,0-1.31-.16,5.56,5.56,0,0,0-1.22.13c-.41.09-.61.3-.61.62a.49.49,0,0,0,.12.34,1.22,1.22,0,0,0,.41.24,10.23,10.23,0,0,0,1,.3l.87.22a9.33,9.33,0,0,1,2.34.88A1.93,1.93,0,0,1,498,248.67Z" transform="translate(-63.71 -41.14)" style="fill:#fff"/><path d="M505.85,250.7a3.37,3.37,0,0,1-.37,1.58,3.15,3.15,0,0,1-1.07,1.2,4.1,4.1,0,0,1-1.69.6v-.8a3.49,3.49,0,0,0,1.57-.69,1.54,1.54,0,0,0,.6-1.25.59.59,0,0,0-.08-.31.26.26,0,0,0-.23-.12,1.46,1.46,0,0,0-.29,0,1.26,1.26,0,0,1-.43.05,1.23,1.23,0,0,1-.87-.38,1.24,1.24,0,0,1-.4-1,1.27,1.27,0,0,1,.42-1,1.44,1.44,0,0,1,1-.38,1.54,1.54,0,0,1,.84.27,2.08,2.08,0,0,1,.72.82A2.8,2.8,0,0,1,505.85,250.7Z" transform="translate(-63.71 -41.14)" style="fill:#fff"/><path d="M528.81,248.9a2.26,2.26,0,0,1-.27,1.14,1.67,1.67,0,0,1-.73.69,2.31,2.31,0,0,1-1,.22,2,2,0,0,1-1.22-.35,1.34,1.34,0,0,1-.59-.82A4.68,4.68,0,0,1,522,251a2.43,2.43,0,0,1-1.54-.46,1.43,1.43,0,0,1-.61-1.21,2,2,0,0,1,.33-1.12,2.85,2.85,0,0,1,.95-.9,7.68,7.68,0,0,1,1.49-.7q.86-.3,2.16-.63v-.5a1.49,1.49,0,0,0-.3-1,1.35,1.35,0,0,0-1.08-.35,1.37,1.37,0,0,0-1,.28,1.5,1.5,0,0,0-.39.85,1.52,1.52,0,0,1-.26.66.92.92,0,0,1-.78.26,1.05,1.05,0,0,1-.65-.21.72.72,0,0,1-.28-.62,1.72,1.72,0,0,1,.88-1.42,4.92,4.92,0,0,1,2.72-.6,4,4,0,0,1,2.64.64,2.22,2.22,0,0,1,.72,1.74v2.76a7,7,0,0,0,0,.77.7.7,0,0,0,.14.37.49.49,0,0,0,.38.13.47.47,0,0,0,.39-.24.92.92,0,0,0,.18-.57Zm-4,.07V246.8a5.35,5.35,0,0,0-2.12,1,1.58,1.58,0,0,0-.45,1,.88.88,0,0,0,.25.64.9.9,0,0,0,.69.25,1.81,1.81,0,0,0,.85-.2A7,7,0,0,0,524.8,249Z" transform="translate(-63.71 -41.14)" style="fill:#fff"/><path d="M543.09,250.75h-4.53v-.81a1.5,1.5,0,0,0,.74-.13.59.59,0,0,0,.28-.4,5.56,5.56,0,0,0,0-.87v-2.47a2.59,2.59,0,0,0-.22-1.18.89.89,0,0,0-.89-.43,1.51,1.51,0,0,0-1.37.7,3,3,0,0,0-.45,1.63v2a1.61,1.61,0,0,0,.2.94,1.1,1.1,0,0,0,.87.25v.81h-4.62v-.81a2.51,2.51,0,0,0,.84-.1.55.55,0,0,0,.36-.35,3.24,3.24,0,0,0,.08-.82v-2.83c0-.41-.07-.67-.23-.8a2,2,0,0,0-1.05-.19v-.8l3.4-.75a6.39,6.39,0,0,1,.08.94v.2a1.09,1.09,0,0,0,0,.19,5.92,5.92,0,0,1,1.15-1,2.71,2.71,0,0,1,1.48-.37,3.27,3.27,0,0,1,1.36.27,2.08,2.08,0,0,1,.94.82,2.55,2.55,0,0,1,.34,1.33v2.95a1.82,1.82,0,0,0,.19,1c.14.18.47.27,1,.27Z" transform="translate(-63.71 -41.14)" style="fill:#fff"/><path d="M558,250.64a22.23,22.23,0,0,0-3.38.4,2.72,2.72,0,0,1-.16-.92A3.82,3.82,0,0,1,552,251a3.58,3.58,0,0,1-1.91-.54,3.9,3.9,0,0,1-1.4-1.45,4,4,0,0,1-.52-2,4.15,4.15,0,0,1,.23-1.34,3.68,3.68,0,0,1,.71-1.22,3.32,3.32,0,0,1,1.2-.87,4.07,4.07,0,0,1,1.64-.31,3.55,3.55,0,0,1,1.15.16,2.9,2.9,0,0,1,.77.38,6.7,6.7,0,0,1,.59.51v-2.86a2.39,2.39,0,0,0-.1-.84.5.5,0,0,0-.36-.33,4.7,4.7,0,0,0-.87-.09v-.8l3.59-.75v9.79a4.52,4.52,0,0,0,.05.88.51.51,0,0,0,.32.35,2.81,2.81,0,0,0,.91.14ZM554.42,249v-3.54a4.94,4.94,0,0,0-.88-.82,2,2,0,0,0-1.2-.36,1.55,1.55,0,0,0-.81.23,1.84,1.84,0,0,0-.6.61,3.91,3.91,0,0,0-.39,2,3.68,3.68,0,0,0,.55,2.19,1.66,1.66,0,0,0,1.36.74,2.17,2.17,0,0,0,1.09-.29A2.87,2.87,0,0,0,554.42,249Z" transform="translate(-63.71 -41.14)" style="fill:#fff"/><path d="M580.7,247a4.18,4.18,0,0,1-.5,2,3.85,3.85,0,0,1-1.4,1.46,3.73,3.73,0,0,1-2,.54,3.4,3.4,0,0,1-2.41-1v2.8a3.34,3.34,0,0,0,.06.74.61.61,0,0,0,.3.38,1.65,1.65,0,0,0,.72.13H576v.8h-5.09v-.8a2.81,2.81,0,0,0,.86-.1.54.54,0,0,0,.34-.35,3.05,3.05,0,0,0,.07-.8V246a2.64,2.64,0,0,0-.07-.74.54.54,0,0,0-.33-.33,2.89,2.89,0,0,0-.87-.1v-.8l3.41-.75a4.49,4.49,0,0,1,.12,1.11,3.81,3.81,0,0,1,1.19-.85,3.54,3.54,0,0,1,1.43-.26,3.71,3.71,0,0,1,1.56.31,3.43,3.43,0,0,1,1.16.84,4,4,0,0,1,.7,1.21A3.87,3.87,0,0,1,580.7,247Zm-2.41-.09c0-1.79-.63-2.68-1.89-2.68a1.9,1.9,0,0,0-1.12.35,3.55,3.55,0,0,0-.87.86v3.46a2.5,2.5,0,0,0,.89.82,2.31,2.31,0,0,0,1.12.31C577.66,250.07,578.29,249,578.29,247Z" transform="translate(-63.71 -41.14)" style="fill:#fff"/><path d="M594.73,247.14a3.66,3.66,0,0,1-2.14,3.43,5,5,0,0,1-2.16.47,5.23,5.23,0,0,1-2.08-.43,3.8,3.8,0,0,1-1.61-1.3,3.6,3.6,0,0,1-.63-2.15,3.39,3.39,0,0,1,1.3-2.88,4.9,4.9,0,0,1,3.07-1,4.74,4.74,0,0,1,2.3.52,3.58,3.58,0,0,1,1.45,1.41A3.86,3.86,0,0,1,594.73,247.14Zm-2.42,0a5,5,0,0,0-.39-2.24,1.56,1.56,0,0,0-1.53-.75,1.73,1.73,0,0,0-1.13.33,1.76,1.76,0,0,0-.57,1,7.88,7.88,0,0,0-.17,1.78,5.54,5.54,0,0,0,.36,2.18,1.51,1.51,0,0,0,1.57.83,1.54,1.54,0,0,0,1.21-.46,2.09,2.09,0,0,0,.53-1.13A9,9,0,0,0,592.31,247.09Z" transform="translate(-63.71 -41.14)" style="fill:#fff"/><path d="M604.69,250.75h-5v-.81H600a1.4,1.4,0,0,0,.74-.14.57.57,0,0,0,.29-.39,4.48,4.48,0,0,0,.05-.74v-7.46c0-.42-.1-.68-.29-.8a2.53,2.53,0,0,0-1.16-.18v-.8l3.71-.75v10a4.71,4.71,0,0,0,0,.74.64.64,0,0,0,.28.39,1.45,1.45,0,0,0,.74.14h.26Z" transform="translate(-63.71 -41.14)" style="fill:#fff"/><path d="M614.17,250.75h-4.75v-.81h.25a1.4,1.4,0,0,0,.74-.14.56.56,0,0,0,.28-.39,3.47,3.47,0,0,0,.06-.74v-2.6a3.26,3.26,0,0,0-.07-.77.51.51,0,0,0-.34-.33,3,3,0,0,0-.92-.12v-.8l3.58-.75v5.37a1.82,1.82,0,0,0,.19,1c.12.18.45.27,1,.27Zm-1-10.87a1.24,1.24,0,0,1-.37.89,1.29,1.29,0,0,1-2.18-.89A1.25,1.25,0,0,1,611,239a1.22,1.22,0,0,1,.9-.37,1.26,1.26,0,0,1,1.27,1.28Z" transform="translate(-63.71 -41.14)" style="fill:#fff"/><path d="M624.93,249.19a3.46,3.46,0,0,1-1.1,1.42,2.6,2.6,0,0,1-1.48.43,2.3,2.3,0,0,1-1.52-.42,1.77,1.77,0,0,1-.61-.94,6,6,0,0,1-.11-1.17v-4.12h-1.32v-.8a3.09,3.09,0,0,0,1.44-.32,2.51,2.51,0,0,0,1-.85,2.72,2.72,0,0,0,.45-1.15h.72v2.32h2.47v.8h-2.47v4.17a4.1,4.1,0,0,0,.1,1.1.46.46,0,0,0,.49.34.85.85,0,0,0,.69-.33,4.15,4.15,0,0,0,.53-.82Z" transform="translate(-63.71 -41.14)" style="fill:#fff"/><path d="M634.24,250.75h-4.75v-.81h.25a1.43,1.43,0,0,0,.74-.14.56.56,0,0,0,.28-.39,3.47,3.47,0,0,0,.06-.74v-2.6a3.26,3.26,0,0,0-.07-.77.51.51,0,0,0-.34-.33,3.08,3.08,0,0,0-.92-.12v-.8l3.58-.75v5.37a1.82,1.82,0,0,0,.19,1c.12.18.45.27,1,.27Zm-1-10.87a1.24,1.24,0,0,1-.37.89,1.29,1.29,0,0,1-2.18-.89,1.25,1.25,0,0,1,.38-.91,1.22,1.22,0,0,1,.9-.37,1.26,1.26,0,0,1,1.27,1.28Z" transform="translate(-63.71 -41.14)" style="fill:#fff"/><path d="M647,249a3.56,3.56,0,0,1-3.4,2.07,4.88,4.88,0,0,1-2.07-.45,3.89,3.89,0,0,1-1.57-1.29,3.43,3.43,0,0,1-.59-2,3.67,3.67,0,0,1,.32-1.5,4.12,4.12,0,0,1,.92-1.3,4.57,4.57,0,0,1,1.43-.9,4.92,4.92,0,0,1,1.77-.31,4.52,4.52,0,0,1,2.13.47,1.47,1.47,0,0,1,.92,1.32.89.89,0,0,1-.29.66.93.93,0,0,1-.66.27.8.8,0,0,1-.81-.51c0-.12-.1-.32-.17-.62a1.06,1.06,0,0,0-.38-.61,1.31,1.31,0,0,0-.74-.18,2,2,0,0,0-1.41.59,3.06,3.06,0,0,0-.61,2.21,5,5,0,0,0,.24,1.59,2.4,2.4,0,0,0,.79,1.15,2,2,0,0,0,1.32.43,1.87,1.87,0,0,0,1.32-.43,4.75,4.75,0,0,0,.8-1Z" transform="translate(-63.71 -41.14)" style="fill:#fff"/><path d="M661.08,248.9a2.26,2.26,0,0,1-.28,1.14,1.67,1.67,0,0,1-.73.69,2.29,2.29,0,0,1-1,.22,2,2,0,0,1-1.23-.35,1.32,1.32,0,0,1-.58-.82,4.72,4.72,0,0,1-2.94,1.17,2.46,2.46,0,0,1-1.55-.46,1.44,1.44,0,0,1-.6-1.21,2,2,0,0,1,.32-1.12,3,3,0,0,1,.95-.9,8,8,0,0,1,1.49-.7q.87-.3,2.16-.63v-.5a1.55,1.55,0,0,0-.29-1,1.38,1.38,0,0,0-1.08-.35,1.36,1.36,0,0,0-1,.28,1.51,1.51,0,0,0-.4.85,1.41,1.41,0,0,1-.26.66.92.92,0,0,1-.78.26,1.07,1.07,0,0,1-.65-.21.75.75,0,0,1-.28-.62,1.71,1.71,0,0,1,.89-1.42,4.88,4.88,0,0,1,2.71-.6,4.09,4.09,0,0,1,2.65.64,2.22,2.22,0,0,1,.72,1.74v2.76c0,.35,0,.61,0,.77a.63.63,0,0,0,.15.37.46.46,0,0,0,.37.13.5.5,0,0,0,.4-.24,1,1,0,0,0,.17-.57Zm-4,.07V246.8a5.22,5.22,0,0,0-2.11,1,1.52,1.52,0,0,0-.45,1,.88.88,0,0,0,.24.64.93.93,0,0,0,.69.25,1.78,1.78,0,0,0,.85-.2A5.51,5.51,0,0,0,657.06,249Z" transform="translate(-63.71 -41.14)" style="fill:#fff"/><path d="M670.3,250.75h-5v-.81h.38a1.43,1.43,0,0,0,.74-.14.56.56,0,0,0,.28-.39,3.59,3.59,0,0,0,.05-.74v-7.46c0-.42-.09-.68-.29-.8a2.5,2.5,0,0,0-1.16-.18v-.8l3.71-.75v10a4.48,4.48,0,0,0,0,.74.57.57,0,0,0,.28.39,1.4,1.4,0,0,0,.74.14h.25Z" transform="translate(-63.71 -41.14)" style="fill:#fff"/><path d="M691,248.67a1.91,1.91,0,0,1-.45,1.28,2.71,2.71,0,0,1-1.23.81,5.25,5.25,0,0,1-1.81.28,7.36,7.36,0,0,1-1.39-.14,4.6,4.6,0,0,1-1.22-.4l-.34.49h-.69l-.08-2.28h.73a2.13,2.13,0,0,0,.89,1.06,3.56,3.56,0,0,0,2,.46,6.24,6.24,0,0,0,.72,0,2,2,0,0,0,.73-.27.74.74,0,0,0,.36-.68.6.6,0,0,0-.36-.57,8.54,8.54,0,0,0-1.36-.43c-.81-.21-1.47-.4-2-.58a3.57,3.57,0,0,1-1.3-.8,1.74,1.74,0,0,1-.54-1.33,1.86,1.86,0,0,1,.95-1.63,4.59,4.59,0,0,1,2.49-.6,6.39,6.39,0,0,1,1.54.15,7.13,7.13,0,0,1,1,.34l.21-.44h.7v2h-.72a1.35,1.35,0,0,0-.43-.66,2.36,2.36,0,0,0-.91-.46,4.7,4.7,0,0,0-1.31-.16,5.62,5.62,0,0,0-1.22.13c-.4.09-.61.3-.61.62a.49.49,0,0,0,.12.34,1.33,1.33,0,0,0,.41.24,10.23,10.23,0,0,0,1,.3l.87.22a9.33,9.33,0,0,1,2.34.88A1.93,1.93,0,0,1,691,248.67Z" transform="translate(-63.71 -41.14)" style="fill:#fff"/><path d="M703.93,249a3.57,3.57,0,0,1-3.41,2.07,4.88,4.88,0,0,1-2.07-.45,3.8,3.8,0,0,1-1.56-1.29,3.36,3.36,0,0,1-.59-2,3.52,3.52,0,0,1,.32-1.5,4.12,4.12,0,0,1,.92-1.3,4.46,4.46,0,0,1,1.43-.9,4.92,4.92,0,0,1,1.77-.31,4.52,4.52,0,0,1,2.13.47,1.47,1.47,0,0,1,.92,1.32.89.89,0,0,1-.29.66,1,1,0,0,1-.67.27.82.82,0,0,1-.55-.17.77.77,0,0,1-.25-.34c0-.12-.1-.32-.18-.62a1,1,0,0,0-.37-.61,1.31,1.31,0,0,0-.74-.18,2,2,0,0,0-1.41.59,3.06,3.06,0,0,0-.62,2.21,5,5,0,0,0,.25,1.59,2.4,2.4,0,0,0,.79,1.15,2,2,0,0,0,1.32.43,1.9,1.9,0,0,0,1.32-.43,4.75,4.75,0,0,0,.8-1Z" transform="translate(-63.71 -41.14)" style="fill:#fff"/><path d="M713.5,250.75h-4.75v-.81H709a1.38,1.38,0,0,0,.73-.14.57.57,0,0,0,.29-.39,4.48,4.48,0,0,0,.05-.74v-2.6a2.8,2.8,0,0,0-.07-.77.49.49,0,0,0-.34-.33,3,3,0,0,0-.92-.12v-.8l3.59-.75v5.37a1.94,1.94,0,0,0,.18,1c.12.18.45.27,1,.27Zm-1-10.87a1.2,1.2,0,0,1-.37.89,1.22,1.22,0,0,1-.9.37,1.3,1.3,0,0,1-1.27-1.26,1.25,1.25,0,0,1,.37-.91,1.22,1.22,0,0,1,.9-.37,1.26,1.26,0,0,1,1.27,1.28Z" transform="translate(-63.71 -41.14)" style="fill:#fff"/><path d="M726.4,246.9H721c0,.11,0,.35.05.71a4.18,4.18,0,0,0,.24,1.11,2,2,0,0,0,2.06,1.35,3.32,3.32,0,0,0,1.12-.24,2.4,2.4,0,0,0,1.14-.91l.68.46A3.56,3.56,0,0,1,723,251a5.57,5.57,0,0,1-1.83-.29,3.94,3.94,0,0,1-1.4-.81,3.52,3.52,0,0,1-.89-1.21,3.8,3.8,0,0,1-.3-1.51,3.86,3.86,0,0,1,.51-1.95,3.74,3.74,0,0,1,1.46-1.44,4.37,4.37,0,0,1,2.18-.53,3.8,3.8,0,0,1,2,.51,3.27,3.27,0,0,1,1.22,1.34A4,4,0,0,1,726.4,246.9Zm-2.17-.8c0-1.33-.52-2-1.57-2a1.36,1.36,0,0,0-1.17.55,2.63,2.63,0,0,0-.45,1.45Z" transform="translate(-63.71 -41.14)" style="fill:#fff"/><path d="M741.3,250.75h-4.53v-.81a1.5,1.5,0,0,0,.74-.13.59.59,0,0,0,.28-.4,5.56,5.56,0,0,0,.05-.87v-2.47a2.59,2.59,0,0,0-.22-1.18.9.9,0,0,0-.89-.43,1.51,1.51,0,0,0-1.37.7,3,3,0,0,0-.45,1.63v2a1.61,1.61,0,0,0,.2.94c.13.17.42.25.87.25v.81h-4.62v-.81a2.51,2.51,0,0,0,.84-.1.55.55,0,0,0,.36-.35,3.24,3.24,0,0,0,.08-.82v-2.83a1,1,0,0,0-.23-.8,2,2,0,0,0-1-.19v-.8l3.4-.75a6.39,6.39,0,0,1,.08.94,1.21,1.21,0,0,1,0,.2v.19a5.92,5.92,0,0,1,1.15-1,2.71,2.71,0,0,1,1.48-.37,3.19,3.19,0,0,1,1.35.27,2.11,2.11,0,0,1,1,.82,2.55,2.55,0,0,1,.34,1.33v2.95a1.82,1.82,0,0,0,.19,1c.13.18.47.27,1,.27Z" transform="translate(-63.71 -41.14)" style="fill:#fff"/><path d="M753.93,249a3.55,3.55,0,0,1-3.4,2.07,4.88,4.88,0,0,1-2.07-.45,3.89,3.89,0,0,1-1.57-1.29,3.43,3.43,0,0,1-.59-2,3.67,3.67,0,0,1,.32-1.5,4.15,4.15,0,0,1,.93-1.3,4.46,4.46,0,0,1,1.43-.9,4.92,4.92,0,0,1,1.77-.31,4.51,4.51,0,0,1,2.12.47,1.45,1.45,0,0,1,.92,1.32.86.86,0,0,1-.29.66.93.93,0,0,1-.66.27.82.82,0,0,1-.55-.17.8.8,0,0,1-.26-.34c0-.12-.1-.32-.17-.62a1,1,0,0,0-.38-.61,1.27,1.27,0,0,0-.73-.18,2,2,0,0,0-1.42.59,3.06,3.06,0,0,0-.61,2.21,4.74,4.74,0,0,0,.25,1.59,2.39,2.39,0,0,0,.78,1.15,2,2,0,0,0,1.32.43,1.87,1.87,0,0,0,1.32-.43,4.79,4.79,0,0,0,.81-1Z" transform="translate(-63.71 -41.14)" style="fill:#fff"/><path d="M766.84,246.9h-5.38c0,.11,0,.35,0,.71a4.18,4.18,0,0,0,.24,1.11,2,2,0,0,0,2.06,1.35,3.32,3.32,0,0,0,1.12-.24,2.4,2.4,0,0,0,1.14-.91l.68.46a3.57,3.57,0,0,1-3.28,1.66,5.57,5.57,0,0,1-1.83-.29,4.07,4.07,0,0,1-1.41-.81,3.63,3.63,0,0,1-.88-1.21,3.8,3.8,0,0,1-.3-1.51,3.86,3.86,0,0,1,.51-1.95,3.74,3.74,0,0,1,1.46-1.44,4.35,4.35,0,0,1,2.18-.53,3.82,3.82,0,0,1,2,.51,3.27,3.27,0,0,1,1.22,1.34A4,4,0,0,1,766.84,246.9Zm-2.17-.8c0-1.33-.53-2-1.57-2a1.36,1.36,0,0,0-1.17.55,2.63,2.63,0,0,0-.45,1.45Z" transform="translate(-63.71 -41.14)" style="fill:#fff"/><path d="M289.35,103.23A155.28,155.28,0,0,1,563,180.66" transform="translate(-63.71 -41.14)" style="fill:none;stroke:#fff;stroke-miterlimit:10;stroke-width:11.1609756097561px"/><path d="M542.52,281.56a155.3,155.3,0,0,1-287.6-61.64" transform="translate(-63.71 -41.14)" style="fill:none;stroke:#fff;stroke-miterlimit:10;stroke-width:11.1609756097561px"/></svg>